# xmcd
#
# Track frame offsets: 
#        150
#        17184
#        35490
#        53503
#        71911
#        90635
#        108354
#        125330
#        142126
#        157650
#        174690
#        191152
#        209470
#        225270
#        243279
#        260436
#        275165
#        289051
#        302568
#        321038
#
# Disc length: 4469 seconds
#
# Revision: 0
# Processed by: cddbd v1.5.2PL0 Copyright (c) Steve Scherf et al.
# Submitted via: ExactAudioCopy v0.99pb4
#
DISCID=1f117314
DTITLE=แมงปอ ชลธิชา - รวมฮิตแมงปอ
DYEAR=2008
DGENRE=Country
TTITLE0=แมงปอล้อรัก
TTITLE1=แม่ครัวหัวไข่
TTITLE2=หนูกลัวตุ๊กแก
TTITLE3=สาว16
TTITLE4=สาวนครชัยศรี
TTITLE5=คอยรักหนุ่มตังเก
TTITLE6=พี่หลวงอย่าลวงน้อง
TTITLE7=ตามล่าชายลวง
TTITLE8=รักน้องไม่ต้องกลัวไฟแนนซ์
TTITLE9=ส่งแฟนขึ้นรถไฟ
TTITLE10=ได้ข่าวว่าแฟนทิ้ง
TTITLE11=อกหักมารักกับไก่
TTITLE12=สาบานก่อนบวช
TTITLE13=อย่าหลอกกันนะ
TTITLE14=คำเตือนของแม่
TTITLE15=ทำดีปีเดียว
TTITLE16=ดูใจกันก่อน
TTITLE17=หล่อไม่เคยคอยใคร
TTITLE18=จับเข่าคุยกัน
TTITLE19=ไม่ใช่อาหารตามสั่ง
EXTD=
EXTT0=
EXTT1=
EXTT2=
EXTT3=
EXTT4=
EXTT5=
EXTT6=
EXTT7=
EXTT8=
EXTT9=
EXTT10=
EXTT11=
EXTT12=
EXTT13=
EXTT14=
EXTT15=
EXTT16=
EXTT17=
EXTT18=
EXTT19=
PLAYORDER=
